<svg xmlns="http://www.w3.org/2000/svg" width="512" height="512" viewBox="0 0 512 512">
  <rect width="512" height="512" fill="#ffffff" rx="128"/>
  <path d="M256 107c-82.475 0-149 66.525-149 149s66.525 149 149 149 149-66.525 149-149-66.525-149-149-149zm0 42.571c58.909 0 106.429 47.52 106.429 106.429s-47.52 106.429-106.429 106.429-106.429-47.52-106.429-106.429 47.52-106.429 106.429-106.429zm0 42.572c-35.347 0-63.857 28.51-63.857 63.857s28.51 63.857 63.857 63.857 63.857-28.51 63.857-63.857-28.51-63.857-63.857-63.857z" fill="#4F46E5"/>
</svg>